# xmcd CD database file
#
# Track frame offsets:
#	150
#	13600
#	27580
#	30985
#	43875
#	47567
#	62000
#	66387
#	81555
#	91532
#	105292
#	111630
#	127830
#	134980
#	152892
#	159977
#	174457
#	178830
#	199255
#	206059
#	219625
#	227235
#	241617
#	249620
#	262520
#	263195
#	279850
#	302167
#
# Disc length: 4064 seconds
#
# Revision: 0
# Processed by: cddbd v1.4PL0 Copyright (c) Steve Scherf et al.
# Submitted via: CDex 1.50
#
DISCID=8c0fde1c
DTITLE=Klaus König - Songs and Solos
DYEAR=2000
DGENRE=Jazz
TTITLE0=Dull Talk
TTITLE1=Her Husband's Smile
TTITLE2=He Won't Tell Her
TTITLE3=Cruel And Heartless
TTITLE4=What's Wrong With Men
TTITLE5=Hope Or Fear
TTITLE6=It Was Bad Enough
TTITLE7=After A While
TTITLE8=Behind The Scenes
TTITLE9=Believe It Or Not
TTITLE10=Women At Work
TTITLE11=The Greedy World Of Wall Street
TTITLE12=Life's Little Luxuries
TTITLE13=More Bucks To Burn
TTITLE14=All Sorts In Any Colour
TTITLE15=Blue, Brown Or Green
TTITLE16=Always Clear, Always Sharp
TTITLE17=The Food Of Love
TTITLE18=Bill's Cigar
TTITLE19=Secret Passions
TTITLE20=And People Believed Him
TTITLE21=When Evil Escapes
TTITLE22=Wait And Weep
TTITLE23=More Little Luxuries
TTITLE24=Sit Back And Relax
TTITLE25=Bill's Blues
TTITLE26=Last News
TTITLE27=Between The Lines
EXTD=YEAR: 2000
EXTT0=
EXTT1=
EXTT2=
EXTT3=
EXTT4=
EXTT5=
EXTT6=
EXTT7=
EXTT8=
EXTT9=
EXTT10=
EXTT11=
EXTT12=
EXTT13=
EXTT14=
EXTT15=
EXTT16=
EXTT17=
EXTT18=
EXTT19=
EXTT20=
EXTT21=
EXTT22=
EXTT23=
EXTT24=
EXTT25=
EXTT26=
EXTT27=
PLAYORDER=
